PathFileType	4	(X/Y/Z)	./resultDataOpenSim/trcMotMarkerGrf/sub06/qtm-01-07.trc
DataRate	CameraRate	NumFrames	NumMarkers	Units	OrigDataRate	OrigDataStartFrame	OrigNumFrames
250.000000	250.000000	11	24	m	250.000000	367	489
Frame#	Time	L.Toe.Tip			R.Toe.Tip			L.Ankle.Lat			R.Ankle.Lat			L.Ankle.Med			R.Ankle.Med			L.Heel			R.Heel			L.Knee.Lat			R.Knee.Lat			L.Knee.Med			R.Knee.Med			L.Thigh.Upper			R.Thigh.Upper			L.ASIS			R.ASIS			V.Sacral			L.Acromium			R.Acromium			C7			L.Elbow			R.Elbow			L.Wrist.Lat			R.Wrist.Lat
		X1	Y1	Z1	X2	Y2	Z2	X3	Y3	Z3	X4	Y4	Z4	X5	Y5	Z5	X6	Y6	Z6	X7	Y7	Z7	X8	Y8	Z8	X9	Y9	Z9	X10	Y10	Z10	X11	Y11	Z11	X12	Y12	Z12	X13	Y13	Z13	X14	Y14	Z14	X15	Y15	Z15	X16	Y16	Z16	X17	Y17	Z17	X18	Y18	Z18	X19	Y19	Z19	X20	Y20	Z20	X21	Y21	Z21	X22	Y22	Z22	X23	Y23	Z23	X24	Y24	Z24

367	1.464	1.3892463	0.095013319	-0.071318224	0.87455542	0.034980049	0.10442649	1.2610386	0.095372481	-0.084463269	0.74548456	0.083660164	0.13007415	1.2691167	0.11295228	-0.0014668647	0.77090929	0.10519108	0.044881413	1.2033096	0.047338594	-0.034983342	0.68949178	0.075556021	0.069826955	1.2055134	0.4671004	-0.084752413	0.90011505	0.44487413	0.16636866	1.2007166	0.45618482	0.037268824	0.87370484	0.44623572	0.036528421	1.0290663	0.81727506	-0.11719297	0.97473002	0.80434693	0.2267735	1.0907924	0.86173672	-0.06237669	1.0794383	0.85783551	0.18417606	0.89906888	0.93105342	0.054557091	0.9962848	1.3411626	-0.12818394	1.0210462	1.3331128	0.23270055	0.93225814	1.3718783	0.057668434	0.90335861	1.0386799	-0.17512603	1.0132843	1.017967	0.33079436	1.0038374	0.82143477	-0.21288968	1.2508515	0.93988237	0.31264369
368	1.468	1.4065184	0.099835508	-0.070265421	0.87462483	0.034952794	0.10444806	1.2783551	0.096612715	-0.084311334	0.74598151	0.08441926	0.13021267	1.2853817	0.1140532	-0.0012365734	0.7715963	0.10575974	0.045008209	1.2218987	0.046509903	-0.034630014	0.68989671	0.076772283	0.0700517	1.2122548	0.46540361	-0.083620075	0.90371031	0.44447541	0.16643204	1.2070677	0.45417533	0.038717995	0.87741594	0.44588262	0.036575938	1.0363402	0.81568233	-0.11737006	0.98068063	0.80326355	0.22651658	1.0977628	0.86036395	-0.06239989	1.0852774	0.85630303	0.18482581	0.90561443	0.92966727	0.054034377	1.0026571	1.3396662	-0.12828601	1.0273452	1.3319432	0.23257505	0.93860863	1.3705798	0.05756386	0.90903214	1.0377272	-0.17461358	1.0215065	1.0168052	0.33095943	1.006653	0.81963075	-0.21373819	1.2598	0.94131166	0.31145008
369	1.472	1.4231819	0.1048672	-0.069323516	0.87469067	0.034921647	0.1044954	1.2951969	0.098112786	-0.084095322	0.74650572	0.08519775	0.13039434	1.3011111	0.11522907	-0.00081539959	0.77225184	0.10636326	0.04522202	1.2401029	0.046001176	-0.034227048	0.69030971	0.078030851	0.070341534	1.2190817	0.46368391	-0.082475772	0.90747794	0.44405499	0.16649161	1.2134209	0.45215204	0.040181081	0.88120453	0.44550229	0.036657876	1.0434844	0.81408048	-0.11748924	0.98669504	0.80214093	0.22626009	1.1047665	0.8590001	-0.062444266	1.0912953	0.85480065	0.18526752	0.91229805	0.92826873	0.053415729	1.0090535	1.3381341	-0.12839759	1.0336388	1.3307419	0.23244133	0.94498718	1.3692546	0.057435031	0.9148026	1.036742	-0.17410138	1.0297094	1.0156277	0.33108708	1.0095571	0.81782475	-0.21461494	1.2686734	0.9426356	0.31028085
370	1.476	1.4392031	0.11006953	-0.068518057	0.87475567	0.034891308	0.10456712	1.3115256	0.099817025	-0.083775147	0.74708047	0.08601101	0.13063921	1.3162499	0.11639617	-0.000210654	0.77286712	0.10701358	0.045524495	1.2577671	0.045890148	-0.034201878	0.69074995	0.079335751	0.070688903	1.2260261	0.46197208	-0.081305636	0.91139771	0.44360785	0.16655281	1.219785	0.45016659	0.041644383	0.88510518	0.44508523	0.036739657	1.0504524	0.81245924	-0.1175324	0.99274617	0.8009612	0.22598771	1.111807	0.85763849	-0.062510403	1.0975625	0.85340643	0.18536939	0.91904094	0.92687182	0.052668537	1.015477	1.3365727	-0.12852375	1.0399284	1.3295104	0.23229893	0.95139331	1.3679054	0.057272857	0.92066959	1.0357301	-0.17359312	1.0378881	1.0144364	0.33117719	1.0125845	0.81602279	-0.21553121	1.2775465	0.94385618	0.30906831
371	1.48	1.4545805	0.1152789	-0.067771979	0.87482724	0.034870298	0.10465348	1.3273007	0.10165223	-0.083313761	0.74773582	0.086871494	0.13095791	1.3306824	0.11750617	0.00046340579	0.77347991	0.10770119	0.045874016	1.2747324	0.04616853	-0.034668849	0.69122518	0.080695013	0.071085677	1.233099	0.46031537	-0.080111354	0.91536643	0.44311297	0.1666364	1.226194	0.44827357	0.043111117	0.88914248	0.4446266	0.036801826	1.0573369	0.81080516	-0.11754386	0.99882123	0.79972081	0.2256963	1.1188808	0.85627714	-0.062596069	1.1039713	0.85207242	0.18524876	0.92574568	0.92547229	0.051843186	1.0219336	1.3349901	-0.12866975	1.0462183	1.3282509	0.23214861	0.95782349	1.3665325	0.057084563	0.92662827	1.0346953	-0.17309741	1.0460387	1.0132321	0.33123245	1.0157218	0.81422915	-0.21648409	1.286449	0.944973	0.30777379
372	1.484	1.4693364	0.12028123	-0.066967963	0.87491212	0.034864028	0.10474343	1.342482	0.10353329	-0.082686004	0.74849074	0.087779355	0.13133547	1.3443685	0.11857358	0.0011165697	0.77414025	0.10840997	0.046221994	1.290929	0.046717902	-0.035316759	0.69172966	0.082122567	0.071531846	1.2402906	0.45876421	-0.078912913	0.91926479	0.44254647	0.16676631	1.2326931	0.44652076	0.044584847	0.89332647	0.44412803	0.03684628	1.0642904	0.8091185	-0.11759771	1.0049247	0.79842747	0.22539846	1.1259801	0.85492414	-0.062691433	1.110414	0.85074079	0.18503121	0.93244463	0.92404923	0.051040207	1.0284278	1.3333901	-0.12884245	1.0525137	1.3269672	0.23199157	0.96427379	1.3651427	0.056879409	0.9326729	1.0336369	-0.17262162	1.0541569	1.0120149	0.33125553	1.0189293	0.8124477	-0.21746136	1.2952974	0.94598738	0.30644458
373	1.488	1.4834856	0.12494291	-0.06607992	0.87500937	0.034869298	0.10483053	1.3570278	0.10537856	-0.081880928	0.74931704	0.088725274	0.13174225	1.3575445	0.11969735	0.0018236916	0.77486809	0.10914063	0.046558439	1.3063829	0.047386161	-0.035668917	0.69226185	0.083631165	0.07203094	1.2475891	0.45735466	-0.077743139	0.92308555	0.44190328	0.16694702	1.2393266	0.4449435	0.046049084	0.8976535	0.44359771	0.036888169	1.0713856	0.80741011	-0.11772476	1.0110578	0.79709072	0.22510146	1.1331028	0.85358943	-0.062784677	1.1168504	0.84938972	0.18475584	0.93926881	0.92258473	0.050329857	1.0349625	1.3317708	-0.12904772	1.0588168	1.3256636	0.2318245	0.97073966	1.3637476	0.056653891	0.93880473	1.0325584	-0.17216059	1.0622386	1.0107843	0.3312483	1.0221888	0.81067747	-0.21845276	1.3039689	0.94690984	0.30516304
374	1.492	1.4970015	0.12921602	-0.065177493	0.87511315	0.034878462	0.10491286	1.3708847	0.10712229	-0.080895612	0.75015053	0.089704477	0.13216259	1.3705121	0.12097317	0.0027332495	0.77565596	0.10990765	0.046907808	1.3211414	0.048051017	-0.035365306	0.69283556	0.085224441	0.072576805	1.2549975	0.45610043	-0.076636191	0.92697442	0.4412069	0.16715175	1.2461235	0.44355727	0.04746444	0.90211981	0.44304443	0.036940293	1.0786031	0.80569825	-0.11790005	1.0172124	0.79572005	0.22480049	1.1402539	0.85227665	-0.062875961	1.1232958	0.84802111	0.18442594	0.94621269	0.92109917	0.04968335	1.0415379	1.3301325	-0.12928697	1.0651294	1.3243435	0.23164205	0.97722117	1.3623516	0.056395207	0.94503381	1.0314736	-0.17169756	1.0702816	1.0095387	0.33120994	1.0255133	0.80891467	-0.21945467	1.312428	0.94774988	0.30396334
375	1.496	1.509817	0.13304765	-0.064311777	0.87522042	0.034886734	0.10499189	1.3840046	0.1087078	-0.079728481	0.75096482	0.090717507	0.13260474	1.3832278	0.12234836	0.0038881947	0.77649391	0.11072573	0.047294753	1.3352152	0.048628983	-0.034277146	0.69347073	0.086898509	0.073154806	1.2625265	0.45500193	-0.075610305	0.9311193	0.44049708	0.16733791	1.2530755	0.44235341	0.048788081	0.90672803	0.44246875	0.037006246	1.0859015	0.80401301	-0.11809107	1.0233926	0.7943333	0.22449732	1.1474454	0.85098303	-0.062974168	1.1297917	0.84664096	0.18407955	0.95285774	0.91968363	0.049068084	1.048152	1.3284837	-0.12955756	1.0714544	1.3230106	0.23144252	0.98372581	1.3609534	0.056093671	0.9513591	1.030388	-0.17123968	1.0782864	1.0082767	0.33113603	1.0289298	0.8071636	-0.22047067	1.3207331	0.94850746	0.3028228
376	1.5	1.5219031	0.13633841	-0.063451482	0.87533149	0.034892212	0.10507207	1.3963896	0.11007251	-0.078379488	0.75180742	0.091755689	0.13309623	1.3954727	0.12368026	0.0052459803	0.7773826	0.11160498	0.04772548	1.3485877	0.049050882	-0.032424288	0.69418046	0.088652654	0.073755448	1.2701697	0.45406558	-0.074656217	0.93560888	0.43980405	0.16748192	1.2601441	0.44130785	0.049995036	0.91146694	0.44186422	0.037098971	1.0932596	0.80238766	-0.11828396	1.0296185	0.79295687	0.22420359	1.1547037	0.84970391	-0.063085866	1.1363633	0.84525202	0.18377941	0.95832649	0.91850333	0.048609805	1.0548073	1.3268341	-0.12985809	1.0777928	1.3216703	0.23122547	0.99025948	1.3595557	0.05574714	0.95775402	1.0292856	-0.17082728	1.0862551	1.0070003	0.33102428	1.0324631	0.80543781	-0.2215078	1.3289513	0.94917958	0.30170797
377	1.504	1.5333125	0.13898679	-0.062538725	0.87544702	0.034894906	0.10515504	1.4080872	0.1111513	-0.076852058	0.75276746	0.09280359	0.13367909	1.4072472	0.12489496	0.0067795177	0.77833311	0.11255058	0.048191369	1.361235	0.049259056	-0.029924347	0.69496906	0.090497188	0.074379083	1.2778996	0.45330884	-0.073745157	0.94040365	0.43913194	0.16759598	1.2672642	0.44039053	0.051079046	0.91631038	0.44122878	0.037243231	1.1006734	0.80084286	-0.11846033	1.0358966	0.79160905	0.22391088	1.1620503	0.84843812	-0.063212383	1.1430037	0.84385825	0.18355003	0.96200385	0.91767456	0.048510571	1.0615102	1.3251906	-0.13019359	1.0841425	1.3203274	0.23098788	0.99682277	1.358161	0.05535982	0.96419797	1.0281506	-0.17047524	1.0941907	1.0057172	0.3308765	1.0361248	0.80374853	-0.22256786	1.3371134	0.94976454	0.30059798
